# Blender v2.91.0 OBJ File: ''
# www.blender.org
mtllib Bookshelf 3.mtl
o BookShelf_Cube.002
v -3.409475 3.854315 0.420419
v -0.990346 2.171837 0.420418
v -0.990346 3.804925 0.420419
v 3.409475 3.854315 0.420419
v -3.409475 2.127017 0.420418
v 3.409475 2.127017 0.420418
v 0.990356 2.171837 0.420418
v 0.994031 3.804925 0.420419
v -3.600000 0.018669 0.500000
v -3.600000 2.000000 0.500000
v -3.600000 2.000000 -0.500000
v -3.600000 0.018669 -0.500000
v 3.600000 0.018669 -0.500000
v 3.600000 2.000000 -0.500000
v 3.600000 2.000000 0.500000
v 3.600000 0.018669 0.500000
v -3.409475 0.145685 0.436492
v -3.366663 0.174227 -0.500000
v -3.366663 1.844442 -0.500000
v -3.409475 1.872983 0.436492
v 3.366663 0.174227 -0.500000
v 3.409475 0.145685 0.436492
v 3.409475 1.872983 0.436492
v 3.366663 1.844442 -0.500000
v -3.600000 2.000000 0.500000
v -3.600000 3.981331 0.500001
v -3.600000 3.981331 -0.499999
v -3.600000 2.000000 -0.500000
v 3.600000 2.000000 -0.500000
v 3.600000 3.981331 -0.499999
v 3.600000 3.981331 0.500001
v 3.600000 2.000000 0.500000
v 3.409475 2.127017 0.502283
v -3.409475 2.127017 0.502283
v -3.409475 3.854315 0.502284
v 3.409475 3.854315 0.502284
v -3.409475 2.127017 0.436492
v -3.366663 2.155558 -0.500000
v -3.366663 3.825773 -0.499999
v -3.409475 3.854315 0.436493
v 3.366663 2.155558 -0.500000
v 3.409475 2.127017 0.436492
v 3.409475 3.854315 0.436493
v 3.366663 3.825773 -0.499999
v -3.600000 3.981331 0.500001
v -3.600000 5.962663 0.500001
v -3.600000 5.962663 -0.499999
v -3.600000 3.981331 -0.499999
v 3.600000 3.981331 -0.499999
v 3.600000 5.962663 -0.499999
v 3.600000 5.962663 0.500001
v 3.600000 3.981331 0.500001
v -3.409475 4.108348 0.436493
v -3.366663 4.136889 -0.499999
v -3.366663 5.807104 -0.499999
v -3.409475 5.835646 0.436493
v 3.366663 4.136889 -0.499999
v 3.409475 4.108348 0.436493
v 3.409475 5.835646 0.436493
v 3.366663 5.807104 -0.499999
v -3.600000 5.962663 0.500001
v -3.600000 7.943994 0.500001
v -3.600000 7.943994 -0.499999
v -3.600000 5.962663 -0.499999
v 3.600000 5.962663 -0.499999
v 3.600000 7.943994 -0.499999
v 3.600000 7.943994 0.500001
v 3.600000 5.962663 0.500001
v -3.409475 6.089680 0.436493
v -3.366663 6.118221 -0.499999
v -3.366663 7.788436 -0.499999
v -3.409475 7.816978 0.436493
v 3.366663 6.118221 -0.499999
v 3.409475 6.089680 0.436493
v 3.409475 7.816978 0.436493
v 3.366663 7.788436 -0.499999
v 0.994031 3.804925 0.502284
v 0.990356 2.171837 0.502283
v -0.990346 2.171837 0.502283
v -0.990346 3.804925 0.502284
v 3.409475 2.127017 0.502283
v -3.409475 2.127017 0.502283
v -3.409475 3.854315 0.502284
v 3.409475 3.854315 0.502284
vt 0.227273 0.227273
vt 0.227273 0.452424
vt 0.227273 0.452424
vt 0.227273 0.227273
vt 0.772727 0.452424
vt 0.772727 0.452424
vt 0.579514 0.445986
vt 0.420781 0.445986
vt 0.772727 0.227273
vt 0.420781 0.233115
vt 0.579220 0.233115
vt 0.728720 -0.703734
vt 0.728720 -0.022226
vt 0.040789 -0.022226
vt 0.040789 -0.703734
vt 0.916418 -0.534161
vt 0.916418 0.062561
vt 0.314072 0.062561
vt 0.314072 -0.534161
vt 1.425044 -0.333774
vt 1.425044 0.175343
vt -0.425044 0.175343
vt -0.425044 -0.333774
vt 0.227273 0.000000
vt 0.772727 0.000000
vt 0.772727 0.227273
vt 0.227273 0.227273
vt 0.772727 0.679697
vt 0.227273 0.679697
vt 0.227273 0.452424
vt 0.772727 0.452424
vt 0.227273 0.227273
vt 0.000000 0.227273
vt 0.000000 0.452424
vt 0.227273 0.452424
vt 1.000000 0.227273
vt 0.772727 0.227273
vt 0.772727 0.452424
vt 1.000000 0.452424
vt 0.227273 0.000000
vt 0.772727 0.000000
vt 0.772727 0.679697
vt 0.227273 0.679697
vt 1.306262 -0.727199
vt 1.306262 -0.033958
vt 1.251839 -0.088386
vt 1.251839 -0.672771
vt -0.373191 -0.727199
vt -0.318768 -0.672771
vt -0.373191 -0.033958
vt -0.318768 -0.088386
vt 0.728720 -0.022226
vt 0.728720 0.659283
vt 0.040789 0.659283
vt 0.040789 -0.022226
vt 0.916418 0.062561
vt 0.916418 0.659283
vt 0.314072 0.659283
vt 0.314072 0.062561
vt 0.227273 0.000000
vt 0.772727 0.000000
vt 0.772727 0.227273
vt 0.227273 0.227273
vt 0.772727 0.679697
vt 0.227273 0.679697
vt 0.227273 0.452424
vt 0.772727 0.452424
vt 0.227273 0.227273
vt 0.000000 0.227273
vt 0.000000 0.452424
vt 0.227273 0.452424
vt 1.000000 0.227273
vt 0.772727 0.227273
vt 0.772727 0.452424
vt 1.000000 0.452424
vt 0.772727 0.452424
vt 0.227273 0.452424
vt 0.227273 0.000000
vt 0.772727 0.000000
vt 0.772727 0.679697
vt 0.227273 0.679697
vt 1.306262 -0.033958
vt 1.306262 0.659283
vt 1.251839 0.604856
vt 1.251839 0.020470
vt -0.373191 -0.033958
vt -0.318768 0.020470
vt -0.373191 0.659283
vt -0.318768 0.604856
vt 0.728720 0.659283
vt 0.728720 1.340792
vt 0.040789 1.340792
vt 0.040789 0.659283
vt 0.916418 0.659283
vt 0.916418 1.256006
vt 0.314072 1.256006
vt 0.314072 0.659283
vt 1.425044 0.684459
vt 1.425044 1.193575
vt -0.425044 1.193575
vt -0.425044 0.684459
vt 0.227273 0.000000
vt 0.772727 0.000000
vt 0.772727 0.227273
vt 0.227273 0.227273
vt 0.772727 0.679697
vt 0.227273 0.679697
vt 0.227273 0.452424
vt 0.772727 0.452424
vt 0.227273 0.227273
vt 0.000000 0.227273
vt 0.000000 0.452424
vt 0.227273 0.452424
vt 1.000000 0.227273
vt 0.772727 0.227273
vt 0.772727 0.452424
vt 1.000000 0.452424
vt 0.227273 0.000000
vt 0.772727 0.000000
vt 0.772727 0.679697
vt 0.227273 0.679697
vt 1.306262 0.659283
vt 1.306262 1.352525
vt 1.251839 1.298097
vt 1.251839 0.713711
vt -0.373191 0.659283
vt -0.318768 0.713711
vt -0.373191 1.352525
vt -0.318768 1.298097
vt 0.728720 1.340792
vt 0.728720 2.022301
vt 0.040789 2.022301
vt 0.040789 1.340792
vt 0.916418 1.256006
vt 0.916418 1.852728
vt 0.314072 1.852728
vt 0.314072 1.256006
vt 1.425044 1.193575
vt 1.425044 1.702691
vt -0.425044 1.702691
vt -0.425044 1.193575
vt 0.227273 0.000000
vt 0.772727 0.000000
vt 0.772727 0.227273
vt 0.227273 0.227273
vt 0.772727 0.679697
vt 0.227273 0.679697
vt 0.227273 0.452424
vt 0.772727 0.452424
vt 0.227273 0.227273
vt 0.000000 0.227273
vt 0.000000 0.452424
vt 0.227273 0.452424
vt 1.000000 0.227273
vt 0.772727 0.227273
vt 0.772727 0.452424
vt 1.000000 0.452424
vt 0.227273 0.000000
vt 0.772727 0.000000
vt 0.772727 0.679697
vt 0.227273 0.679697
vt 1.306262 1.352525
vt 1.306262 2.045766
vt 1.251839 1.991338
vt 1.251839 1.406952
vt -0.373191 1.352525
vt -0.318768 1.406952
vt -0.373191 2.045766
vt -0.318768 1.991338
vt 0.772727 0.227273
vt 0.227273 0.227273
vt 1.425044 0.684459
vt 1.376087 0.651821
vt 1.376087 0.207980
vt 1.425044 0.175343
vt -0.376087 0.651821
vt -0.425044 0.684459
vt -0.425044 0.175343
vt -0.376087 0.207980
vt 1.376087 0.207980
vt 1.376087 0.651821
vt 0.755423 0.639130
vt 0.754479 0.219497
vt 0.245524 0.219497
vt 0.245524 0.639130
vt -0.376087 0.651821
vt -0.376087 0.207980
vt 0.420781 0.445986
vt 0.420781 0.233115
vt 0.772727 0.227273
vt 0.579220 0.233115
vt 0.579514 0.445986
vn -0.7071 -0.7071 0.0000
vn -0.7071 0.7071 0.0000
vn 0.7071 0.7071 0.0000
vn 0.0000 0.0000 -1.0000
vn -1.0000 -0.0000 0.0000
vn 1.0000 -0.0000 0.0000
vn 0.0000 -0.0000 1.0000
vn 0.0000 -1.0000 -0.0000
vn 0.0000 1.0000 0.0000
vn 0.9990 0.0000 0.0457
vn -0.9990 0.0000 0.0457
vn 0.0000 0.9995 0.0305
vn 0.0000 -0.9995 0.0305
vn 0.7071 -0.7071 0.0000
vn -0.1910 0.7326 -0.6533
vn -0.6534 -0.6532 -0.3827
vn -0.6534 0.6532 0.3827
vn -0.1910 -0.7326 0.6533
vn 0.0120 -0.0000 0.9999
vn 0.0000 0.0180 0.9998
vn -0.0120 -0.0000 0.9999
vn 0.0000 -0.0180 0.9998
vn -0.7063 0.7079 0.0000
vn -0.7079 -0.7063 0.0000
usemtl None.002
s 1
f 82/1/1 83/2/2 1/3/2 5/4/1
f 83/2/2 84/5/3 4/6/3 1/3/2
f 4/6/4 8/7/4 3/8/4 1/3/4
f 6/9/4 5/4/4 1/3/4 3/8/4 2/10/4 7/11/4 8/7/4 4/6/4
f 9/12/5 10/13/5 11/14/5 12/15/5
f 13/16/6 14/17/6 15/18/6 16/19/6
f 16/20/7 15/21/7 10/22/7 9/23/7
f 12/24/8 13/25/8 16/26/8 9/27/8
f 14/28/9 11/29/9 10/30/9 15/31/9
f 17/32/10 18/33/10 19/34/10 20/35/10
f 21/36/11 22/37/11 23/38/11 24/39/11
f 22/37/4 17/32/4 20/35/4 23/38/4
f 18/40/12 17/32/12 22/37/12 21/41/12
f 24/42/13 23/38/13 20/35/13 19/43/13
f 12/44/4 11/45/4 19/46/4 18/47/4
f 13/48/4 12/44/4 18/47/4 21/49/4
f 11/45/4 14/50/4 24/51/4 19/46/4
f 14/50/4 13/48/4 21/49/4 24/51/4
f 25/52/5 26/53/5 27/54/5 28/55/5
f 29/56/6 30/57/6 31/58/6 32/59/6
f 28/60/8 29/61/8 32/62/8 25/63/8
f 30/64/9 27/65/9 26/66/9 31/67/9
f 37/68/10 38/69/10 39/70/10 40/71/10
f 41/72/11 42/73/11 43/74/11 44/75/11
f 40/71/14 43/74/15 36/76/16 35/77/14
f 38/78/12 37/68/12 42/73/12 41/79/12
f 44/80/13 43/74/13 40/71/13 39/81/13
f 28/82/4 27/83/4 39/84/4 38/85/4
f 29/86/4 28/82/4 38/85/4 41/87/4
f 27/83/4 30/88/4 44/89/4 39/84/4
f 30/88/4 29/86/4 41/87/4 44/89/4
f 45/90/5 46/91/5 47/92/5 48/93/5
f 49/94/6 50/95/6 51/96/6 52/97/6
f 52/98/7 51/99/7 46/100/7 45/101/7
f 48/102/8 49/103/8 52/104/8 45/105/8
f 50/106/9 47/107/9 46/108/9 51/109/9
f 53/110/10 54/111/10 55/112/10 56/113/10
f 57/114/11 58/115/11 59/116/11 60/117/11
f 58/115/4 53/110/4 56/113/4 59/116/4
f 54/118/12 53/110/12 58/115/12 57/119/12
f 60/120/13 59/116/13 56/113/13 55/121/13
f 48/122/4 47/123/4 55/124/4 54/125/4
f 49/126/4 48/122/4 54/125/4 57/127/4
f 47/123/4 50/128/4 60/129/4 55/124/4
f 50/128/4 49/126/4 57/127/4 60/129/4
f 61/130/5 62/131/5 63/132/5 64/133/5
f 65/134/6 66/135/6 67/136/6 68/137/6
f 68/138/7 67/139/7 62/140/7 61/141/7
f 64/142/8 65/143/8 68/144/8 61/145/8
f 66/146/9 63/147/9 62/148/9 67/149/9
f 69/150/10 70/151/10 71/152/10 72/153/10
f 73/154/11 74/155/11 75/156/11 76/157/11
f 74/155/4 69/150/4 72/153/4 75/156/4
f 70/158/12 69/150/12 74/155/12 73/159/12
f 76/160/13 75/156/13 72/153/13 71/161/13
f 64/162/4 63/163/4 71/164/4 70/165/4
f 65/166/4 64/162/4 70/165/4 73/167/4
f 63/163/4 66/168/4 76/169/4 71/164/4
f 66/168/4 65/166/4 73/167/4 76/169/4
f 43/74/15 42/73/17 33/170/18 36/76/16
f 37/68/3 40/71/14 35/77/14 34/171/3
f 42/73/17 37/68/3 34/171/3 33/170/18
f 31/172/19 36/173/19 33/174/19 32/175/19
f 45/101/20 35/176/20 36/173/20 52/98/20
f 26/177/21 25/178/21 34/179/21 35/176/21
f 15/21/22 33/174/22 34/179/22 10/22/22
f 81/180/7 84/181/7 77/182/7 78/183/7 79/184/7 80/185/7 83/186/7 82/187/7
f 84/181/7 83/186/7 80/185/7 77/182/7
f 80/188/14 79/189/3 2/10/3 3/8/14
f 84/5/3 81/190/14 6/9/14 4/6/3
f 78/191/23 77/192/24 8/7/24 7/11/23
f 79/189/3 78/191/23 7/11/23 2/10/3
f 77/192/24 80/188/14 3/8/14 8/7/24
f 81/190/14 82/1/1 5/4/1 6/9/14
