# Blender v2.91.0 OBJ File: ''
# www.blender.org
mtllib RailingCollider.mtl
o Cube.004_Cube.003
v 2.393859 3.862473 -13.500484
v 2.057191 4.028958 -13.539429
v 2.057149 4.036073 0.625500
v 2.091932 4.106981 -13.551369
v 2.184863 4.175018 -13.560433
v 2.118866 4.137356 0.641068
v 2.317241 4.173971 -13.562903
v 2.377697 4.143828 0.640131
v 2.411444 4.102922 -13.550188
v 2.246482 3.796299 0.591644
v 2.440798 4.025296 -13.549277
v 2.442254 4.027828 0.623363
v 2.108291 3.806958 0.588364
v 2.110160 3.805859 -13.495640
v 2.389729 3.803407 -13.501310
v 2.391145 3.805606 0.588884
v 2.395752 3.943052 0.632571
v 2.395398 3.941394 -13.545701
v 2.349519 3.908976 -13.555316
v 2.284666 3.795658 -13.503164
v 2.106015 3.858783 -13.499535
v 2.161106 3.910166 -13.558598
v 2.103901 3.943885 -13.545450
v 2.176863 4.047944 -13.582005
v 2.374245 4.055502 0.655961
v 2.236030 4.184599 0.646455
v 2.104466 3.942667 0.632109
v 2.219365 3.956524 0.665208
vt -0.726861 10.510897
vt -0.731880 -9.539074
vt -0.858989 10.514919
vt -0.647699 -9.547414
vt 0.196894 -9.545311
vt 0.123868 10.549822
vt 0.226924 10.541246
vt 0.041729 -9.552372
vt -0.055946 10.550361
vt -0.131226 -9.545553
vt -0.166029 10.541404
vt 0.624109 -9.552882
vt 0.439391 -9.552635
vt 0.444401 10.400978
vt 0.252385 10.400856
vt 0.248741 -9.552689
vt -0.503611 10.510197
vt -0.503905 -9.539817
vt -0.594087 -9.549044
vt -0.372496 -9.543511
vt -0.380838 10.514397
vt -0.968095 -9.482022
vt -0.855386 -9.542770
vt -1.046127 -9.482970
vt -1.044132 10.471001
vt -0.191284 10.470235
vt -0.192488 -9.483749
vt -0.277380 -9.484460
vt 1.072572 -8.542971
vt 1.015595 -8.614769
vt 1.067670 -8.486228
vt 0.833903 -8.489021
vt 0.975936 -8.543360
vt 1.112980 -8.888548
vt 1.002424 -8.815877
vt 1.150649 -8.795088
vt 1.099720 -8.677789
vt 0.989570 -8.985345
vt 0.640576 -8.793365
vt 0.816552 -8.988764
vt 0.677164 -8.895455
vt 0.753550 -8.611294
vt 0.687618 -8.544877
vt 0.678590 -8.596640
vt 0.687028 -8.669319
vt 0.856089 -9.243156
vt 0.725877 -9.482639
vt 0.636834 -9.345098
vt 0.689122 -9.217736
vt 0.885559 -9.019517
vt 1.100107 -9.118528
vt -0.636518 10.523798
vt -0.597711 10.522453
vt 0.622353 10.400953
vt 0.691946 -8.486855
vt -0.913188 -9.541809
vt -0.946447 -9.536703
vt 1.064452 -9.374620
vt 0.884246 -9.545179
vt 0.704039 -9.030437
vt 1.088222 -9.027940
vt 1.158968 -9.335541
vt 1.106703 -9.215825
vt 1.067258 -9.484791
vn -0.8592 0.0243 0.5110
vn -0.8710 -0.0511 -0.4885
vn -0.6656 -0.3021 0.6825
vn -0.6759 0.4757 -0.5628
vn -0.5413 0.5803 0.6085
vn -0.2611 0.7666 -0.5867
vn -0.0473 0.7851 0.6175
vn 0.2802 0.7251 -0.6290
vn 0.5258 0.6411 0.5590
vn 0.6686 0.4654 -0.5800
vn -0.0711 -0.9005 -0.4291
vn 0.0462 -0.8426 -0.5366
vn 0.0691 -0.9293 0.3628
vn 0.6075 -0.6406 0.4697
vn 0.5748 -0.5714 -0.5857
vn 0.8938 -0.0098 0.4484
vn 0.8114 -0.0582 -0.5816
vn 0.7218 -0.3488 -0.5978
vn 0.6416 -0.3292 0.6928
vn -0.9222 -0.1228 -0.3666
vn -0.7039 -0.3019 -0.6429
vn -0.9703 -0.0989 -0.2207
vn -0.6153 -0.6370 0.4644
vn 0.9676 -0.0356 -0.2499
vn -0.1960 -0.3158 -0.9283
vn -0.1170 0.0988 -0.9882
vn -0.1673 -0.1412 -0.9757
vn 0.2315 -0.3297 -0.9153
vn 0.3945 -0.5184 -0.7587
vn -0.0598 -0.2015 0.9777
vn 0.0042 -0.4167 0.9091
vn -0.0807 -0.9229 0.3765
vn 0.1194 -0.0422 -0.9920
vn 0.2544 0.0312 0.9666
usemtl Railing
s 1
f 3/1/1 2/2/2 27/3/3
f 3/1/1 4/4/4 2/2/2
f 6/5/5 5/6/6 4/7/4
f 26/8/7 7/9/8 5/6/6
f 8/10/9 9/11/10 7/9/8
f 14/12/11 20/13/12 10/14/13
f 16/15/14 10/14/13 15/16/15
f 12/17/16 11/18/17 9/19/10
f 18/20/18 11/18/17 17/21/19
f 21/22/20 27/3/3 23/23/21
f 14/24/22 13/25/23 21/22/20
f 16/26/14 15/27/15 1/28/24
f 17/21/19 1/28/24 18/20/18
f 21/29/20 22/30/25 14/31/22
f 22/30/25 20/32/12 14/33/11
f 4/34/4 24/35/26 2/36/2
f 24/35/27 23/37/21 2/36/2
f 5/38/6 24/35/26 4/34/4
f 11/39/17 7/40/8 9/41/10
f 19/42/28 1/43/29 20/32/12
f 1/44/29 19/42/28 18/45/18
f 28/46/30 6/47/5 3/48/1
f 27/49/3 28/46/30 3/48/1
f 28/46/30 27/49/3 10/50/31
f 17/51/19 28/46/30 10/50/31
f 17/21/19 16/26/14 1/28/24
f 23/23/21 27/3/3 2/2/2
f 3/1/1 6/52/5 4/4/4
f 6/5/5 26/8/7 5/6/6
f 26/8/7 8/10/9 7/9/8
f 9/19/10 8/53/9 12/17/16
f 15/16/15 10/14/13 20/13/12
f 13/54/23 14/12/22 10/14/32
f 17/21/19 11/18/17 12/17/16
f 21/22/20 13/25/23 27/3/3
f 20/32/12 22/30/25 19/42/28
f 23/37/21 24/35/27 22/30/25
f 7/40/8 24/35/26 5/38/6
f 19/42/28 11/39/17 18/45/18
f 19/42/28 24/35/33 11/39/17
f 22/30/25 24/35/27 19/42/28
f 11/39/17 24/35/26 7/40/8
f 15/55/15 20/32/12 1/43/24
f 21/22/20 23/56/21 22/57/25
f 25/58/34 28/46/30 17/51/19
f 26/59/7 28/46/30 25/58/34
f 6/47/5 28/46/30 26/59/7
f 10/50/32 27/49/3 13/60/23
f 16/61/14 17/51/19 10/50/13
f 12/62/16 25/58/34 17/63/19
f 12/62/16 8/64/9 25/58/34
f 8/64/9 26/59/7 25/58/34
